<svg width="1200" height="1200" viewBox="0 0 1200 1200" fill="none" xmlns="http://www.w3.org/2000/svg">
<path d="M1200 0H0V1200H1200V0Z" fill="#0084C0"/>
<path d="M345.914 614.919C348.238 614.919 349.401 617.894 349.401 623.843C349.145 628.073 347.786 632.164 345.462 635.709C342.63 640.444 339.068 644.701 334.906 648.317C330.575 652.137 325.714 655.305 320.475 657.727C315.641 660.077 310.351 661.336 304.979 661.414C298.135 661.414 293.551 655.4 291.227 643.371C287.879 648.85 283.331 653.493 277.926 656.95C271.335 660.813 263.762 662.669 256.135 662.286C252.078 662.462 248.028 661.79 244.244 660.315C240.459 658.839 237.022 656.594 234.15 653.717C231.458 651.021 229.347 647.795 227.948 644.247C226.549 640.699 225.891 636.903 226.015 633.09C226.015 611.103 233.311 593.773 247.903 581.097C252.932 576.49 258.824 572.929 265.239 570.622C270.727 568.919 276.442 568.071 282.188 568.098C287.224 567.936 292.221 569.048 296.715 571.331C298.523 567.583 300.588 565.707 302.913 565.707C305.349 565.788 307.746 566.352 309.962 567.366C312.179 568.383 314.172 569.828 315.826 571.623C319.217 574.33 321.399 578.271 321.896 582.586C319.571 587.854 316.918 592.972 313.954 597.911C312.761 606.198 312.243 614.566 312.404 622.938C312.404 633.714 313.76 639.104 316.472 639.104C319.829 639.104 327.965 632.378 340.878 618.928C343.202 616.255 344.881 614.919 345.914 614.919ZM254.489 626.686C254.489 636.645 258.169 641.625 265.529 641.625C273.406 641.496 279.927 637.293 285.093 629.016C287.079 625.76 288.579 622.229 289.548 618.538C289.335 606.011 290.636 593.505 293.422 581.29C282.965 583.359 273.416 588.651 266.111 596.422C262.257 600.438 259.244 605.184 257.248 610.38C255.252 615.577 254.314 621.123 254.489 626.686Z" fill="white"/>
<path d="M431.334 601.988C431.334 597.677 428.881 595.523 423.974 595.523C420.616 595.523 416.872 598.755 412.739 605.221C408.629 611.696 405.618 618.809 403.829 626.272V626.659C403.86 631.258 404.545 635.831 405.863 640.24C406.923 643.378 407.605 646.638 407.897 649.938C407.897 654.249 402.409 658.561 391.432 662.872C390.018 663.462 388.509 663.791 386.977 663.842C385.458 663.883 383.969 663.405 382.756 662.489C381.542 661.573 380.674 660.274 380.295 658.798C378.912 654.375 378.29 649.752 378.455 645.121C378.455 639.365 378.616 633.975 378.939 628.955C379.261 623.931 379.584 619.213 379.908 614.793C380.23 610.482 380.553 606.666 380.876 603.345C381.199 600.028 381.36 597.344 381.36 595.296C381.36 590.984 379.359 588.83 375.356 588.83C371.352 588.83 366.704 593.518 361.409 602.894C356.115 612.269 353.468 619.708 353.468 625.203C353.42 630.352 354.105 635.478 355.501 640.434C356.561 643.575 357.244 646.831 357.535 650.132C357.535 654.443 352.047 658.754 341.071 663.065C339.656 663.656 338.147 663.985 336.616 664.036C335.098 664.073 333.612 663.591 332.4 662.675C331.187 661.763 330.318 660.464 329.933 658.992C328.486 653.951 327.865 648.71 328.093 643.473C327.784 630.179 328.496 616.886 330.224 603.701C332.214 591.534 336.699 579.906 343.395 569.557C344.098 568.091 345.159 566.823 346.479 565.876C347.799 564.927 349.336 564.323 350.949 564.126C355.254 564.126 359.192 567.62 362.765 574.601C363.701 576.205 364.479 577.894 365.089 579.645C367.569 576.12 370.842 573.23 374.645 571.209C378.448 569.184 382.673 568.088 386.977 568.007C392.454 567.979 397.754 569.943 401.892 573.536C403.955 575.201 405.61 577.314 406.729 579.719C407.848 582.124 408.402 584.753 408.349 587.406V589.539C411.663 584.984 416.004 581.273 421.019 578.712C426.033 576.151 431.58 574.808 437.21 574.797C440.085 574.591 442.973 574.967 445.702 575.9C448.43 576.833 450.943 578.305 453.093 580.228C454.861 581.972 456.254 584.058 457.187 586.361C458.12 588.661 458.572 591.13 458.517 593.613C458.558 598.423 458.168 603.23 457.354 607.972C456.58 612.283 455.708 616.289 454.739 619.997C453.771 623.704 452.9 627.035 452.124 629.99C451.463 632.198 451.073 634.477 450.962 636.78C450.962 638.395 451.479 639.206 452.512 639.206C455.249 638.826 457.777 637.527 459.679 635.519C462.52 633.059 465.36 630.376 468.201 627.466L476.046 619.416C478.522 616.893 480.191 615.634 481.049 615.634C482.857 615.634 483.763 617.788 483.763 622.1C483.763 631.153 479.21 639.949 470.106 648.483C462.478 656.427 452.051 661.068 441.051 661.417C431.754 661.417 427.105 652.947 427.105 636.004C427.295 630.068 428.008 624.159 429.236 618.348C430.386 612.965 431.088 607.49 431.334 601.988Z" fill="white"/>
<path d="M537.869 644.343C533.52 649.943 527.957 654.481 521.597 657.606C515.237 660.733 508.249 662.368 501.163 662.385C486.896 662.385 476.209 658.732 469.107 651.422C465.602 647.833 462.866 643.562 461.067 638.878C459.268 634.19 458.445 629.184 458.647 624.167C458.238 609.537 463.436 595.307 473.175 584.398C477.962 578.927 483.905 574.592 490.57 571.709C497.239 568.822 504.464 567.458 511.719 567.713C517.652 567.496 523.568 568.418 529.155 570.43C536.773 573.533 540.582 576.444 540.582 579.157C540.582 581.315 535.254 582.394 524.603 582.394C519.626 582.302 514.688 583.235 510.088 585.138C505.492 587.041 501.333 589.87 497.87 593.452C494.311 597.095 491.523 601.423 489.678 606.172C487.829 610.924 486.961 615.999 487.12 621.093C486.954 626.446 488.786 631.67 492.252 635.74C494.094 637.759 496.367 639.333 498.898 640.35C501.428 641.371 504.155 641.805 506.879 641.626C512.337 641.826 517.74 640.482 522.472 637.745C518.035 634.838 514.433 630.822 512.021 626.093C509.61 621.361 508.47 616.087 508.718 610.782C508.629 604.462 511.031 598.363 515.4 593.804C517.601 591.308 520.318 589.323 523.361 587.984C526.404 586.644 529.704 585.982 533.028 586.047C540.192 586.047 545.328 588.018 548.425 591.963C551.671 596.43 553.309 601.867 553.075 607.386C552.947 614.248 551.43 621.012 548.622 627.27H549.782C555.223 627.226 560.446 625.127 564.405 621.385C565.955 619.835 567.281 618.475 568.377 617.311C568.77 616.819 569.259 616.412 569.815 616.111C570.368 615.812 570.979 615.625 571.606 615.564C573.414 615.564 574.317 617.722 574.317 622.033C574.564 625.327 574.062 628.634 572.858 631.707C571.65 634.78 569.764 637.542 567.346 639.784C563.109 643.474 557.685 645.506 552.075 645.506C547.312 645.577 542.557 645.187 537.869 644.343ZM536.125 621.711C538.198 617.478 539.3 612.841 539.355 608.129C539.355 603.818 537.933 601.664 535.094 601.664C533.931 601.664 532.964 602.505 532.187 604.184C531.454 605.697 531.058 607.352 531.027 609.035C530.956 611.406 531.373 613.763 532.252 615.968C533.127 618.17 534.446 620.167 536.125 621.84V621.711Z" fill="white"/>
<path d="M976.628 662.352C987.326 662.352 996 653.665 996 642.953C996 632.237 987.326 623.554 976.628 623.554C965.929 623.554 957.259 632.237 957.259 642.953C957.259 653.665 965.929 662.352 976.628 662.352Z" fill="#C1E8FB"/>
<path d="M776.829 618.473C778.98 618.473 780.055 621.448 780.055 627.397C779.74 631.597 778.339 635.643 775.988 639.134C773.159 643.873 769.594 648.126 765.432 651.745C761.104 655.568 756.243 658.737 751.002 661.155C746.355 663.445 741.267 664.703 736.087 664.839C732.156 665.059 728.251 664.113 724.853 662.125C722.085 660.283 719.856 657.739 718.394 654.751C716.244 650.44 714.436 642.068 712.974 629.629C712.17 620.915 710.748 612.272 708.71 603.761C705.491 603.181 702.465 601.814 699.897 599.786C698.703 598.938 697.726 597.812 697.058 596.506C696.39 595.2 696.047 593.751 696.057 592.283C695.952 590.926 696.281 589.566 696.994 588.406C697.706 587.246 698.768 586.34 700.026 585.817C702.872 584.481 705.986 583.82 709.13 583.877C712.373 583.83 715.565 584.705 718.33 586.401C721.881 583.552 724.87 580.065 727.146 576.116C729.578 570.977 730.69 565.309 730.372 559.627C730.504 556.52 729.948 553.42 728.743 550.55C727.536 547.684 725.711 545.12 723.401 543.04C718.944 538.882 712.187 536.799 703.127 536.799C696.183 536.568 689.243 537.287 682.496 538.932C678.276 540.143 674.162 541.7 670.196 543.59C666.774 545.272 663.741 546.822 661.092 548.247C658.823 549.567 656.259 550.299 653.636 550.381C651.313 550.381 650.149 549.638 650.149 548.149C650.716 545.442 651.984 542.932 653.83 540.873C656.886 536.972 660.546 533.587 664.678 530.849C676.567 522.454 690.807 518.051 705.355 518.275C718.353 517.83 731.243 520.805 742.736 526.908C748.156 529.825 752.644 534.207 755.693 539.56C758.739 544.913 760.225 551.015 759.977 557.172C760.459 567.161 757.369 576.998 751.26 584.912C745.507 592.154 737.865 597.659 729.178 600.821C731.172 605.257 732.763 609.867 733.923 614.596C735.151 619.507 736.345 624.036 737.508 628.174C738.441 631.739 739.774 635.189 741.477 638.455C741.915 639.571 742.654 640.545 743.614 641.264C744.571 641.983 745.71 642.421 746.901 642.529C749.832 642.17 752.562 640.84 754.648 638.747C757.684 636.227 760.686 633.476 763.658 630.501C766.626 627.526 769.275 624.779 771.599 622.258C774.051 619.735 775.795 618.473 776.829 618.473ZM692.57 548.634C694.25 548.634 695.087 550.791 695.087 555.102C695.101 559.251 694.843 563.399 694.314 567.517C693.242 574.583 691.753 581.577 689.857 588.47C685.21 606.058 682.883 616.339 682.883 619.314V647.831C683.161 650.748 682.55 653.679 681.132 656.243C679.715 658.804 677.557 660.877 674.942 662.19L667.873 665.422C665.465 666.487 662.853 667.017 660.22 666.972C654.797 666.972 652.086 660.734 652.086 648.252C652.721 632.17 655.655 616.261 660.804 601.014C664.983 585.807 671.102 571.201 679.009 557.558C680.593 555.299 682.482 553.274 684.626 551.544C686.838 549.648 689.66 548.617 692.57 548.634Z" fill="#C1E8FB"/>
<path d="M943.603 618.477C945.754 618.477 946.832 621.452 946.832 627.401C946.496 631.608 945.072 635.651 942.697 639.138C939.868 643.877 936.307 648.13 932.141 651.75C927.813 655.569 922.952 658.737 917.712 661.156C912.467 663.605 906.745 664.863 900.958 664.843C898.384 664.982 895.812 664.541 893.431 663.547C891.05 662.56 888.923 661.044 887.203 659.121C883.998 655.579 882.237 650.966 882.264 646.187C882.363 640.776 883.143 635.397 884.591 630.183C886.226 624.318 887.946 618.155 889.754 611.686C894.662 594.441 897.179 582.352 897.308 575.408C897.427 573.057 897.03 570.707 896.148 568.522C895.738 567.711 895.093 567.047 894.296 566.612C893.502 566.178 892.593 565.998 891.691 566.097C887.817 566.097 883.686 568.424 879.296 573.081C874.398 578.457 870.229 584.458 866.898 590.93C858.476 605.774 853.636 622.381 852.76 639.43L853.534 644.86C853.798 646.79 853.931 648.734 853.921 650.681C853.826 652.91 853.229 655.091 852.17 657.058C851.115 659.022 849.626 660.722 847.818 662.031C844.043 665.348 839.189 667.173 834.165 667.17C832.778 667.17 831.421 666.753 830.271 665.976C829.121 665.199 828.229 664.093 827.707 662.808C826.187 659.426 825.461 655.746 825.576 652.038C825.834 646.122 826.811 640.261 828.483 634.579C830.42 627.208 832.571 619.383 834.939 611.106C841.136 589.248 844.301 572.952 844.43 562.216C844.63 557.813 843.938 553.414 842.394 549.282C841.746 547.776 840.641 546.515 839.229 545.677C837.822 544.842 836.183 544.472 834.552 544.629C827.578 544.629 820.668 549.608 813.826 559.567C806.981 569.526 800.848 584.98 795.424 605.933C794.003 611.364 792.928 616.086 792.195 620.095L792.002 623.779C793.83 631.431 795.058 639.216 795.682 647.058C795.682 654.562 793.036 659.606 787.741 662.19L780.669 665.426C778.39 666.464 775.913 666.994 773.407 666.977C766.952 666.977 763.722 660.803 763.722 648.449C763.722 636.099 767.057 611.988 773.729 576.12C776.185 563.186 777.409 555.944 777.409 554.394C777.409 543.916 774.763 538.679 769.468 538.679C767.701 538.665 765.975 539.208 764.53 540.229C763.044 541.264 761.558 542.342 760.072 543.465C758.59 544.584 757.05 545.772 755.459 547.02C753.879 548.065 752.023 548.604 750.13 548.573C748.129 548.573 747.128 546.827 747.128 543.336C747.135 539.819 748.051 536.365 749.781 533.306C751.511 530.246 754.001 527.689 757.006 525.874C763.719 521.04 771.826 518.544 780.089 518.761C791.71 518.761 798.555 524.151 800.621 534.927C801.137 538.16 801.527 541.589 801.785 545.209C811.34 527.319 823.412 518.374 838.005 518.374C853.995 518.374 863.069 526.003 865.219 541.264C866.017 545.941 866.342 550.687 866.19 555.429V556.979C874.581 545.341 884.524 539.52 896.019 539.52C912.288 539.52 920.425 549.35 920.425 569.007C920.225 579.116 918.892 589.17 916.453 598.979C913.807 610.428 911.87 618.64 910.642 623.619C909.594 627.385 908.977 631.255 908.801 635.162C908.801 640.074 910.514 642.533 913.936 642.533C917.355 642.533 925.523 635.807 938.437 622.357C940.849 619.769 942.572 618.477 943.603 618.477Z" fill="#C1E8FB"/>
<path d="M667.71 592.708C670.939 592.708 672.618 595.941 672.618 602.05C672.452 608.969 670.983 615.791 668.29 622.161C665.19 629.742 660.821 636.74 655.38 642.856C649.213 649.851 641.788 655.62 633.491 659.864C623.756 664.762 612.969 667.181 602.081 666.913C590.375 667.052 579.052 662.73 570.409 654.82C561.349 646.737 556.817 635.085 556.817 619.868C556.658 605.808 558.839 591.819 563.275 578.482C567.092 566.942 572.787 556.118 580.127 546.437C586.572 537.906 594.662 530.759 603.919 525.42C611.612 520.742 620.391 518.154 629.39 517.92C643.358 517.92 650.343 524.151 650.343 536.61C650.631 542.587 649.267 548.526 646.405 553.777C643.779 558.089 641.11 560.243 638.396 560.243C636.598 560.243 634.817 559.859 633.176 559.12C631.534 558.377 630.068 557.295 628.874 555.945C627.748 554.636 626.368 553.567 624.821 552.8C623.274 552.034 621.588 551.586 619.869 551.481C616.639 551.481 607.728 551.125 600.208 563.251C597.254 567.268 595.066 571.796 593.75 576.606C589.34 587.935 587.149 600.011 587.295 612.172C588.468 620.933 593.02 628.884 599.981 634.318C604.112 637.191 609.109 638.541 614.119 638.134C623.02 637.147 631.218 632.826 637.073 626.042C641.466 621.32 645.339 616.859 649.502 612.043C653.667 607.226 657.347 602.796 660.512 598.722C663.674 594.648 666.065 592.708 667.71 592.708Z" fill="#C1E8FB"/>
</svg>
