<svg width="204" height="91" viewBox="0 0 204 91" fill="#B67FA2" xmlns="http://www.w3.org/2000/svg">
    <path fill-rule="evenodd" clip-rule="evenodd"
        d="M40.4392 83.0885V85.8986H44.475V86.8873H40.4392V90.15H39.2937V82.0846H44.9681V83.0885H40.4392Z" />
    <path fill-rule="evenodd" clip-rule="evenodd" d="M57.6216 82.0846H58.7671V89.1461H63.1253V90.15H57.6216V82.0846Z" />
    <path fill-rule="evenodd" clip-rule="evenodd"
        d="M78.9573 90.2412C78.1456 90.2412 77.4136 90.0625 76.7612 89.705C76.1088 89.3476 75.5967 88.8533 75.2288 88.2258C74.8571 87.5946 74.6712 86.8949 74.6712 86.1192C74.6712 85.3435 74.8571 84.64 75.2288 84.0126C75.6005 83.3813 76.1126 82.8908 76.7612 82.5333C77.4136 82.1759 78.1456 81.9972 78.9573 81.9972C79.7691 81.9972 80.4897 82.1759 81.1421 82.5333C81.7945 82.8908 82.3028 83.3813 82.6707 84.0087C83.0386 84.6362 83.2207 85.3397 83.2207 86.123C83.2207 86.9063 83.0386 87.6098 82.6707 88.2372C82.3028 88.8647 81.7945 89.3552 81.1421 89.7126C80.4897 90.0701 79.7615 90.2488 78.9573 90.2488M78.9573 89.2145C79.5453 89.2145 80.0763 89.0814 80.5504 88.8114C81.0207 88.5415 81.3925 88.1726 81.6656 87.7011C81.9387 87.2296 82.0752 86.701 82.0752 86.1154C82.0752 85.5298 81.9387 85.005 81.6656 84.5297C81.3925 84.0582 81.0207 83.6855 80.5504 83.4193C80.0801 83.1532 79.5491 83.0163 78.9573 83.0163C78.3656 83.0163 77.8346 83.1494 77.3529 83.4193C76.875 83.6893 76.4995 84.0582 76.2264 84.5297C75.9533 85.0012 75.8167 85.5298 75.8167 86.1154C75.8167 86.701 75.9533 87.2257 76.2264 87.7011C76.4995 88.1764 76.875 88.5452 77.3529 88.8114C77.8308 89.0814 78.3656 89.2145 78.9573 89.2145Z" />
    <path fill-rule="evenodd" clip-rule="evenodd"
        d="M107.124 82.0846L104.435 90.15H103.229L101.033 83.7083L98.8366 90.15H97.6076L94.9184 82.0846H96.1018L98.2752 88.6403L100.54 82.0846H101.594L103.813 88.6745L106.032 82.0846H107.124Z" />
    <path fill-rule="evenodd" clip-rule="evenodd"
        d="M125.395 89.1461V90.15H119.558V82.0846H125.232V83.0885H120.707V85.564H124.739V86.5413H120.707V89.1461H125.395Z" />
    <path fill-rule="evenodd" clip-rule="evenodd"
        d="M143.666 90.15L141.929 87.6745C141.713 87.6897 141.546 87.6973 141.425 87.6973H139.437V90.15H138.288V82.0846H141.425C142.468 82.0846 143.287 82.3356 143.882 82.8337C144.482 83.3319 144.778 84.0202 144.778 84.8948C144.778 85.5184 144.626 86.0469 144.319 86.4842C144.011 86.9215 143.575 87.241 143.01 87.4387L144.918 90.1461H143.666V90.15ZM141.39 86.7162C142.119 86.7162 142.672 86.5603 143.056 86.2447C143.439 85.9291 143.628 85.4804 143.628 84.8986C143.628 84.3168 143.439 83.8681 143.056 83.5562C142.672 83.2444 142.119 83.0885 141.39 83.0885H139.437V86.7162H141.39Z" />
    <path fill-rule="evenodd" clip-rule="evenodd"
        d="M160.018 90.2412C159.411 90.2412 158.827 90.1461 158.266 89.9598C157.704 89.7735 157.26 89.5301 156.938 89.2297L157.363 88.3323C157.67 88.6099 158.061 88.8342 158.542 89.0054C159.02 89.1765 159.514 89.2639 160.018 89.2639C160.686 89.2639 161.182 89.1499 161.512 88.9255C161.842 88.6974 162.006 88.3969 162.006 88.0205C162.006 87.7429 161.914 87.5186 161.736 87.3474C161.554 87.1725 161.334 87.0432 161.069 86.9482C160.803 86.8569 160.431 86.7542 159.95 86.6363C159.343 86.4918 158.857 86.3436 158.486 86.1991C158.114 86.0546 157.795 85.8302 157.53 85.526C157.264 85.2218 157.135 84.8149 157.135 84.2977C157.135 83.868 157.249 83.4802 157.473 83.1341C157.7 82.7881 158.042 82.5105 158.501 82.3052C158.96 82.0998 159.532 81.9934 160.211 81.9934C160.686 81.9934 161.152 82.0542 161.615 82.1759C162.074 82.2976 162.468 82.4763 162.798 82.7045L162.419 83.6247C162.081 83.4079 161.721 83.2482 161.338 83.1341C160.955 83.0239 160.579 82.9668 160.211 82.9668C159.559 82.9668 159.07 83.0847 158.747 83.3243C158.421 83.5638 158.258 83.868 158.258 84.2445C158.258 84.5221 158.349 84.7464 158.535 84.9176C158.717 85.0887 158.945 85.2256 159.218 85.3206C159.491 85.4157 159.859 85.5184 160.325 85.6248C160.932 85.7693 161.418 85.9177 161.786 86.0622C162.153 86.2067 162.468 86.431 162.734 86.7314C162.999 87.0318 163.128 87.4349 163.128 87.9406C163.128 88.3627 163.014 88.7468 162.783 89.0966C162.552 89.4465 162.203 89.7241 161.736 89.9256C161.27 90.1309 160.693 90.2298 160.014 90.2298" />
    <path fill-rule="evenodd" clip-rule="evenodd"
        d="M161.482 58.9648L160.864 57.4438L138.462 1.42382L137.984 0.241211L122.395 41.1268C122.554 41.2599 122.797 41.4652 123.108 41.682C123.465 41.9558 123.912 42.2562 124.428 42.5566C127.607 44.378 128.6 44.5491 128.6 44.5491C135.921 47.9144 142.987 49.1351 151.351 49.4165C153.357 54.4549 154.727 57.8735 154.734 57.8849C154.829 58.2423 154.886 58.5351 154.886 58.8812C154.886 60.733 153.388 62.235 151.541 62.235V62.4898H166.443V62.2541C164.213 62.2541 162.301 60.8927 161.486 58.9648M136.342 43.5338C133.66 42.0774 127.455 37.9782 125.448 35.537L135.375 9.49675C135.375 9.49675 145.218 34.0882 150.858 48.2149C146.985 48.2985 139.274 45.1233 136.338 43.5338" />
    <path fill-rule="evenodd" clip-rule="evenodd"
        d="M64.7563 0.861035C49.2732 0.861035 36.7259 14.3793 36.7259 31.0537C36.7259 47.7281 49.277 61.2464 64.7563 61.2464C80.2356 61.2464 92.7867 47.7281 92.7867 31.0537C92.7867 14.3793 80.2356 0.861035 64.7563 0.861035ZM64.7563 1.19947C76.856 1.19947 86.661 14.5656 86.661 31.0499C86.661 47.5342 76.8522 60.9003 64.7563 60.9003C52.6603 60.9003 42.8516 47.538 42.8516 31.0499C42.8516 14.5618 52.6565 1.19947 64.7563 1.19947Z" />
    <path fill-rule="evenodd" clip-rule="evenodd"
        d="M128.509 0.861035V1.04736C126.389 1.04736 124.584 2.33645 123.802 4.1769C123.745 4.31 123.7 4.43928 123.65 4.57238L111.945 35.2556V58.3716C111.945 60.5239 113.679 62.2617 115.818 62.2617V62.486H101.522V62.2617C103.669 62.2617 105.402 60.5239 105.402 58.3716V35.2632L93.6401 5.84244L92.965 4.1769C92.1874 2.33645 90.3781 1.04736 88.2578 1.04736V0.861035H101.848V1.04736H101.837C100.411 1.04736 99.2576 2.20335 99.2576 3.63313C99.2576 3.90692 99.2955 4.15789 99.3714 4.40506C99.4017 4.48872 99.4283 4.56477 99.4662 4.64082L99.9441 5.84244L109.176 28.9204L111.35 34.3696L111.941 32.8295L122.691 4.64082L122.786 4.39746C122.862 4.15409 122.899 3.89931 122.899 3.63694C122.899 2.20716 121.746 1.05117 120.32 1.05117H120.301V0.864838H128.502L128.509 0.861035Z" />
    <path fill-rule="evenodd" clip-rule="evenodd"
        d="M41.2168 59.1283C37.4958 55.687 34.2338 51.8159 30.5963 48.2567C25.9385 43.6783 24.4023 41.8303 15.6367 41.6972C16.1904 41.2066 18.2045 40.1647 19.02 39.659C22.3389 37.5904 25.563 34.94 27.9071 31.8408C35.2087 22.1138 33.4373 6.13144 21.0379 2.13491C17.0515 0.845825 11.0357 0.807799 5.56999 0.883851H0.00183989V1.1082C0.320454 1.1082 0.631481 1.14623 0.919751 1.22228C0.984232 1.23369 1.04113 1.2489 1.10561 1.27932C1.10561 1.27932 1.11193 1.27932 1.12457 1.27932C1.95904 1.5341 2.67971 2.05885 3.16901 2.76614C3.609 3.39737 3.87072 4.1655 3.87072 4.99446V58.383C3.87072 59.3603 3.51418 60.2539 2.9035 60.9384C2.20179 61.7445 1.15871 62.2617 -0.00195312 62.2617V62.486H14.2826V62.2617C12.625 62.2617 11.1988 61.2083 10.6564 59.7329C10.4971 59.3108 10.4137 58.8583 10.4137 58.3792V43.9673C10.4402 43.9483 10.4592 43.9407 10.4782 43.9293C16.3535 41.5413 20.4804 46.2299 22.9079 48.8423C25.6464 51.7817 29.0564 55.3561 32.1325 58.3716C37.9927 64.0869 44.8429 69.3839 53.5214 71.0115C61.4791 72.5059 71.2385 72.5059 79.9549 70.1178V70.1102C67.4683 73.0801 48.9773 66.3152 41.213 59.1245M10.4251 42.8037H10.4137V3.86129C10.4137 2.36687 11.6237 1.16524 13.1029 1.16524H13.2243C14.5746 1.13863 16.3004 1.54931 17.2184 1.88774C25.6844 5.01728 25.9271 20.7372 23.4503 28.0953C22.2213 31.742 20.34 34.6053 18.3335 36.8983C17.3132 38.0809 12.5681 42.4235 10.4213 42.7999" />
    <path fill-rule="evenodd" clip-rule="evenodd"
        d="M204.002 48.2148L203.824 48.8917L200.618 60.9954L200.562 61.2121C200.516 61.3604 200.44 61.4935 200.364 61.6152C200.129 61.9803 199.773 62.2655 199.352 62.4062C199.249 62.4442 199.135 62.4632 199.025 62.4822C198.999 62.4822 198.98 62.4898 198.961 62.4898H170.043V62.2541C170.828 62.2541 171.56 62.0183 172.178 61.6152C173.218 60.9117 173.912 59.7253 173.912 58.3716V4.96785C173.912 2.82318 172.178 1.08539 170.039 1.08539V0.849627H184.324V1.08539C182.188 1.08539 180.451 2.82318 180.451 4.96785V60.4973C180.451 61.1133 180.948 61.6114 181.562 61.6114C184.119 61.6114 190.214 61.619 190.294 61.6114C195.103 61.4973 199.207 58.5199 200.979 54.3104C200.979 54.2914 203.012 48.5495 203.012 48.5495L203.217 47.9563L203.994 48.211L204.002 48.2148Z" />
</svg>